# xmcd
#
# Track frame offsets:
#	150
#	11395
#	23612
#	34597
#	49960
#	59452
#	68712
#	85135
#	96150
#	112782
#	124967
#	137870
#	147805
#
# Disc length: 2477 seconds
#
# Revision: 2
# Processed by: cddbd v1.5.2PL0 Copyright (c) Steve Scherf et al.
# Submitted via: EZCDAudioConverter 2.1.7.1
#
DISCID=a809ab0d
DTITLE=The Surfaris - Surf Party!
DYEAR=1900
DGENRE=
TTITLE0=Wipe Out
TTITLE1=Tequila
TTITLE2=Shake N' Stomp
TTITLE3=Surfer Joe
TTITLE4=Point Panic
TTITLE5=Pipeline
TTITLE6=Summertime Blues/Somethin' Else
TTITLE7=Earthquake
TTITLE8=Hiawatha
TTITLE9=Louie, Louie
TTITLE10=Apache
TTITLE11=Scatter Shield
TTITLE12=Let's Go Trippin'/Surf Beat/Misirlou
EXTD=
EXTT0=
EXTT1=
EXTT2=
EXTT3=
EXTT4=
EXTT5=
EXTT6=
EXTT7=
EXTT8=
EXTT9=
EXTT10=
EXTT11=
EXTT12=
PLAYORDER=
